<?xml version="1.0" encoding="UTF-8"?><svg xmlns="http://www.w3.org/2000/svg" viewBox="0 0 47.93 47.44"><defs><style>.d{fill:#ea65a4;}.e{fill:#ee6f60;}.f{fill:#0a7d67;}</style></defs><g id="a"/><g id="b"><g id="c"><g><g><path class="e" d="M25.36,35.54c.77,.24,1.55,.41,2.35,.5,4.94-3.57,7.48-9.92,5.87-16.17-.93-3.59-3.07-6.55-5.87-8.56-.58,.07-1.17,.16-1.74,.31-.19,.05-.36,.14-.55,.2,3.14,1.75,5.6,4.72,6.56,8.47,.91,3.52,.39,7.18-1.46,10.31-1.26,2.13-3.05,3.79-5.16,4.95Z"/><path class="e" d="M4.04,27.48c1.77,6.87,7.98,11.44,14.77,11.44,1.11,0,2.24-.15,3.37-.4-.49-.23-.98-.45-1.45-.73-.3-.18-.58-.38-.87-.57-6.46,.5-12.55-3.67-14.22-10.15-1.87-7.26,2.51-14.69,9.78-16.56,1.13-.29,2.27-.43,3.39-.43,.34,0,.67,.06,1,.08,.74-.51,1.52-.96,2.34-1.34-2.29-.52-4.72-.53-7.14,.09C6.86,11.01,1.94,19.34,4.04,27.48Z"/><path class="d" d="M15.89,15.9c-2.08,3.52-2.66,7.64-1.64,11.59,1.02,3.96,3.52,7.28,7.04,9.36,.08,.05,.17,.08,.26,.13,.76,.43,1.54,.77,2.35,1.06,1.66,.6,3.39,.94,5.15,.94,1.28,0,2.57-.16,3.84-.49,3.96-1.02,7.28-3.52,9.36-7.04,2.08-3.52,2.66-7.64,1.64-11.59-1.78-6.89-8.01-11.48-14.82-11.48-1.26,0-2.54,.16-3.81,.48-.48,.12-.95,.27-1.41,.44-.81,.29-1.59,.67-2.33,1.09-2.3,1.3-4.24,3.18-5.62,5.52Zm8.12-4.74c.55-.22,1.09-.46,1.68-.61,.21-.05,.42-.08,.63-.12,.92-.19,1.84-.31,2.75-.31,6.03,0,11.55,4.07,13.12,10.17,.9,3.5,.39,7.15-1.45,10.27-1.84,3.12-4.78,5.33-8.29,6.23-1.13,.29-2.27,.43-3.4,.43-.92,0-1.82-.12-2.72-.31-.81-.17-1.61-.39-2.39-.71-.6-.25-1.19-.53-1.76-.87-3.12-1.84-5.33-4.78-6.23-8.29-.9-3.5-.39-7.15,1.45-10.27,1.53-2.6,3.86-4.51,6.61-5.62Z"/></g><path class="f" d="M33.8,20.53c8.57,3.4-.46,21.46,7.54,20.82,.15-.85,.34-2.11,.45-3.03,.6-4.73-.68-13.26-3.27-17.77h8.49c.97,7.65-1.39,11.01-3.16,17.55-.78,2.88-.22,3.82,4.07,2.75l-2.54,5.82h0l-.07,.17c-1,.42-2.32,.63-3.44,.6-1.26-.03-2.33-.24-3.24-.6-8.97-3.56,.45-21.46-7.54-20.82-.15,.85-.34,2.11-.46,3.03-.6,4.73,1.28,13.25,3.86,17.77h-8.49c-.97-7.65,.8-11.01,2.56-17.56,.78-2.88,.22-3.82-4.07-2.75l2.62-5.99c1-.42,2.32-.63,3.44-.6,1.26,.03,2.33,.24,3.24,.6Z"/><path class="f" d="M17.66,0h-4.02c.68,3.02,.09,3.41-1.73,2.87C7.77,1.63,5.65-.04,.82,.65V6.62c2.86-1.82,8.24-2.72,11.23-2.3,.57,.08,1.37,.22,1.9,.32h.06V15.78c-.03,3.02-1.93,5.67-5.83,5.67S1.97,18.35,1.97,13.32H.12c-.49,7.35,.14,14.06,9.91,13.99,1.36-.01,2.73-.26,3.98-.74,3.28-1.24,5.83-4.09,5.83-8.5V0h-2.18Z"/></g></g></g></svg>